
<svg width="269px" height="71px" viewBox="0 0 269 71" version="1.1" xmlns="http://www.w3.org/2000/svg" xmlns:xlink="http://www.w3.org/1999/xlink">
    <defs>
        <polygon id="path-1" points="0.1383 0.893 71.245 0.893 71.245 72 0.1383 72"></polygon>
    </defs>
    <g id="Page-1" stroke="none" stroke-width="1" fill="none" fill-rule="evenodd">
        <g id="Desktop-HD" transform="translate(-80.000000, -19.000000)">
            <g id="header">
                <g id="codewind-logo" transform="translate(80.000000, 18.000000)">
                    <path d="M19.8676,56.286 C18.4476,58.105 15.6076,59.79 11.3066,59.79 C4.8766,59.79 0.0006,54.82 0.0006,48.301 C0.0006,41.694 4.9236,36.771 11.6646,36.771 C15.6136,36.771 18.4476,38.812 19.1576,39.522 L17.4736,42.362 C16.8986,41.787 14.7686,40.057 11.7066,40.057 C7.8916,40.057 4.0786,42.896 4.0786,48.348 C4.0786,53.317 7.5816,56.51 11.7946,56.51 C15.3446,56.51 17.3806,55.09 18.4006,53.939 L19.8676,56.286 Z" id="Fill-1" fill="#fff"></path>
                    <path d="M41.5131,48.3065 C41.5131,43.5185 38.0511,40.1035 33.9731,40.1035 C29.4951,40.1035 26.3451,43.5645 26.3451,48.4415 C26.3451,53.1415 29.9361,56.5555 33.8851,56.5555 C38.4091,56.5555 41.5131,53.2295 41.5131,48.3065 M33.9731,59.7895 C27.4081,59.7895 22.2671,54.7325 22.2671,48.3005 C22.2671,41.8235 27.4121,36.7715 34.0201,36.7715 C40.5851,36.7715 45.6381,41.9575 45.6381,48.3005 C45.6381,54.6435 40.5381,59.7895 33.9731,59.7895" id="Fill-3" fill="#fff"></path>
                    <path d="M66.5726,42.7148 C65.4646,41.1598 63.0226,40.1448 60.6296,40.1448 C56.2396,40.1448 53.3536,43.3838 53.3536,48.5698 C53.3536,53.6278 57.0326,56.5098 61.2046,56.5098 C62.7596,56.5098 64.8426,56.1568 66.5726,55.0018 L66.5726,42.7148 Z M66.5726,22.8008 L70.4746,22.8008 L70.4746,56.9498 C67.6346,58.9028 64.3546,59.7898 61.2046,59.7898 C55.0846,59.7898 49.2286,56.0638 49.2286,48.5698 C49.2286,41.5178 53.8866,36.7718 60.4946,36.7718 C62.6656,36.7718 64.9716,37.4348 66.5726,38.7668 L66.5726,22.8008 Z" id="Fill-5" fill="#fff"></path>
                    <path d="M92.6957,45.8192 C92.1207,42.4922 90.3007,39.9632 86.4877,39.9632 C83.2077,39.9632 80.3207,41.7352 79.4347,45.8192 L92.6957,45.8192 Z M95.9747,56.4632 C94.7317,58.1052 91.2757,59.7902 86.7937,59.7902 C80.1387,59.7902 75.3507,55.2652 75.3507,48.3892 C75.3507,41.6062 79.9167,36.7712 86.5697,36.7712 C93.3997,36.7712 96.6387,42.1392 96.6387,47.9022 L96.6387,49.0572 L79.2997,49.0572 C79.2997,49.5912 79.3877,50.1202 79.4347,50.3892 C80.2327,54.7782 83.7357,56.5552 87.6377,56.5552 C91.2757,56.5552 93.6227,54.9132 94.6017,53.8502 L95.9747,56.4632 Z" id="Fill-7" fill="#fff"></path>
                    <polygon id="Fill-9" fill="#fff" points="120.5902 60.1474 113.9832 42.2274 107.4172 60.1474 107.3702 60.1474 98.8982 38.2844 101.0692 38.2844 107.4532 55.0064 113.9312 37.1754 113.9782 37.1754 120.6732 55.0064 127.0572 38.2844 129.0992 38.2844 120.6262 60.1474"></polygon>
                    <path d="M133.3636,59.1728 L133.3636,38.2788 L135.3166,38.2788 L135.3166,59.1678 L133.3636,59.1678 L133.3636,59.1728 Z M134.3376,33.8488 C133.3636,33.8488 132.5656,33.0508 132.5656,32.1178 C132.5656,31.0558 133.3636,30.2988 134.3376,30.2988 C135.3586,30.2988 136.109625,31.0558 136.109625,32.1178 C136.1146,33.0458 135.3586,33.8488 134.3376,33.8488 L134.3376,33.8488 Z" id="Fill-11" fill="#fff"></path>
                    <path d="M157.5785,59.1728 L157.5785,46.3998 C157.5785,41.5648 155.7185,39.7038 151.3245,39.7038 C147.9555,39.7038 145.4685,41.5648 144.4475,42.6318 L144.4475,59.1728 L142.4945,59.1728 L142.4945,38.2788 L144.4475,38.2788 L144.4475,40.5378 C145.6445,39.4768 147.9975,37.7448 151.6355,37.7448 C156.6455,37.7448 159.5275,40.1868 159.5275,45.5958 L159.5275,59.1678 L157.5785,59.1728 Z" id="Fill-13" fill="#fff"></path>
                    <path d="M182.432,43.0722 C181.282,41.0312 178.265,39.5692 175.115,39.5692 C169.969,39.5692 166.512,43.0312 166.512,49.0622 C166.512,55.0072 170.861,57.8872 175.825,57.8872 C177.778,57.8872 180.26,57.3542 182.432,55.8042 L182.432,43.0722 Z M182.432,22.8012 L184.385,22.8012 L184.385,56.8202 C181.945,58.7742 178.887,59.7012 175.825,59.7012 C170.016,59.7012 164.471,56.3752 164.471,49.0572 C164.471,42.1392 168.86,37.7512 175.115,37.7512 C177.867,37.7512 180.701,38.7242 182.432,40.4142 L182.432,22.8012 Z" id="Fill-15" fill="#fff"></path>
                    <polygon id="Fill-17" fill="#fff" points="239.475 65.3241 248.6 56.1981 238.63 41.1861"></polygon>
                    <g id="Group-21" transform="translate(197.000000, 0.107100)">
                        <mask id="mask-2" fill="white">
                            <use xlink:href="#path-1"></use>
                        </mask>
                        <g id="Clip-20"></g>
                        <path d="M32.5873,41.2395 L9.4603,38.6335 L10.9113,36.3115 L36.4063,35.5605 L32.5873,41.2395 Z M40.4433,36.1095 L41.4543,36.1095 L41.5633,39.1725 L47.1753,39.3695 L53.9993,53.6915 L71.2453,36.4465 L51.5433,16.7445 L42.2883,34.3685 L39.2153,28.2485 L49.2113,14.4125 L35.6913,0.8925 L0.1383,36.4465 L35.6913,72.0005 L38.8013,68.8905 L40.4433,36.1095 Z" id="Fill-19" fill="#fff" mask="url(#mask-2)"></path>
                    </g>
                </g>
            </g>
        </g>
    </g>
</svg>