<?xml version="1.0" encoding="UTF-8"?>
<svg width="96px" height="60px" viewBox="0 0 96 60" version="1.1" xmlns="http://www.w3.org/2000/svg" xmlns:xlink="http://www.w3.org/1999/xlink">
    <!-- Generator: Sketch 51.2 (57519) - http://www.bohemiancoding.com/sketch -->
    <title>Icons/IBM-Bee</title>
    <desc>Created with Sketch.</desc>
    <defs>
        <polygon id="path-1" points="0 0 95.3897609 0 95.3897609 58.7595671 0 58.7595671"></polygon>
        <polyline id="path-3" points="0 0 95.3897609 0 95.3897609 58.7595671 0 58.7595671 20.279714 22.3317744 48.7860062 16.9317159"></polyline>
    </defs>
    <g id="Regression-Testing" stroke="none" stroke-width="1" fill="none" fill-rule="evenodd">
        <g id="Regression-test-1" transform="translate(-1136.000000, -569.000000)">
            <g id="Feed-Background" transform="translate(1008.000000, 327.000000)">
                <g id="Group" transform="translate(53.000000, 107.000000)">
                    <g id="Icons/IBM-Bee" transform="translate(75.000000, 135.000000)">
                        <g>
                            <path d="M34,21.1852176 L60.4340926,21.1852176 C57.5835286,17.4570777 52.7297796,15 47.2162514,15 C41.704313,15 36.850564,17.4570777 34,21.1852176" id="Fill-1" fill="#8C9BA5"></path>
                            <path d="M32.1033389,28 C32.0365661,28.5071878 32,29.0236535 32,29.5463044 L32,34.1852176 L63.796587,34.1852176 L63.796587,29.5463044 C63.796587,29.0236535 63.7584311,28.5071878 63.6916582,28 L32.1033389,28 Z" id="Fill-3" fill="#8C9BA5"></path>
                            <path d="M32,44.6389132 C32,45.1615641 32.0365661,45.6780297 32.1033389,46.1852176 L63.6932481,46.1852176 C63.7600209,45.6780297 63.796587,45.1615641 63.796587,44.6389132 L63.796587,40 L32,40 L32,44.6389132 Z" id="Fill-5" fill="#8C9BA5"></path>
                            <path d="M47.2162514,59.1852176 C52.7297796,59.1852176 57.5835286,56.7281399 60.4340926,53 L34,53 C36.850564,56.7281399 41.7027232,59.1852176 47.2162514,59.1852176" id="Fill-7" fill="#8C9BA5"></path>
                            <g id="Group-11">
                                <mask id="mask-2" fill="white">
                                    <use xlink:href="#path-1"></use>
                                </mask>
                                <g id="Clip-10"></g>
                                <path d="M19.1653992,37.8466475 C18.7456842,38.8316434 18.1399592,39.7130369 17.3641225,40.4676334 C16.5898756,41.2206837 15.6852627,41.8098256 14.6677719,42.2165037 C13.6566405,42.6262743 12.5946345,42.8334791 11.4658556,42.8334791 C10.3831819,42.8334791 9.31958602,42.6262743 8.31481387,42.2226889 C7.29096377,41.806733 6.38317121,41.217591 5.61210398,40.4660871 C4.83944691,39.7161295 4.23372193,38.834736 3.81400698,37.8451012 C3.39270221,36.8554663 3.17966507,35.8148035 3.17966507,34.7478534 C3.17807524,33.6886349 3.39270221,32.6495184 3.81241715,31.6598836 C4.23531176,30.6702488 4.84103674,29.7888552 5.61369381,29.0373513 C6.38476104,28.2858474 7.2925536,27.6967054 8.25440036,27.308583 L26.1749568,20.4677323 L19.1653992,37.8466475 Z M7.0922351,24.4293642 C5.73929033,24.976756 4.46583702,25.7792879 3.36567511,26.8508769 C2.26233354,27.9224658 1.43880194,29.1579631 0.876002348,30.4738681 C0.294124806,31.8423475 -0.00158345282,33.2974199 6.37653367e-06,34.7509461 C-0.00158345282,36.2091111 0.294124806,37.6626372 0.876002348,39.0295703 C1.43880194,40.3501143 2.26233354,41.5840652 3.36567511,42.6541078 C4.46583702,43.7272431 5.73929033,44.5282288 7.09064527,45.0771668 C8.48810527,45.6384753 9.97777537,45.9260879 11.4658556,45.9260879 L11.4897031,45.9260879 L11.5135505,45.9260879 C13.000041,45.9260879 14.4865314,45.6384753 15.8855812,45.0740742 C17.2432955,44.5282288 18.5119793,43.7256968 19.6121412,42.6541078 C20.713893,41.5840652 21.5406042,40.348568 22.1034038,39.0295703 L31.7965934,15 L7.0922351,24.4293642 Z" id="Fill-9" fill="#8C9BA5" mask="url(#mask-2)"></path>
                            </g>
                            <g id="Group-14">
                                <mask id="mask-4" fill="white">
                                    <use xlink:href="#path-3"></use>
                                </mask>
                                <g id="Clip-13"></g>
                                <path d="M91.9825864,37.8466475 C91.5628714,38.834736 90.9571464,39.7161295 90.1828995,40.4691797 C89.4134221,41.217591 88.5056296,41.806733 87.4913185,42.2195963 C86.4770073,42.6262743 85.4150013,42.8334791 84.2846327,42.8334791 C83.2019589,42.8334791 82.1399529,42.6262743 81.1240519,42.2149574 C80.1129204,41.8098256 79.2067177,41.2206837 78.4324708,40.4676334 C77.6582239,39.7130369 77.0509091,38.8316434 76.6534518,37.8992218 L69.6216366,20.4677323 L87.4849591,27.2853884 C88.5040398,27.6967054 89.4118323,28.2858474 90.1844894,29.0373513 C90.9555566,29.7888552 91.5612816,30.6702488 91.9825864,31.656791 C92.405481,32.6495184 92.6185181,33.6886349 92.6169283,34.7540387 C92.6169283,35.8148035 92.405481,36.8554663 91.9825864,37.8466475 M94.920591,30.4738681 C94.3593812,29.1579631 93.5342598,27.9224658 92.4325081,26.8508769 C91.3307563,25.7792879 90.0588929,24.976756 88.7043583,24.4293642 L64,15 L73.6947794,39.0295703 C74.2559891,40.348568 75.0842902,41.5840652 76.1844521,42.6541078 C77.284614,43.7256968 78.5532979,44.5282288 79.9110121,45.0740742 C81.3100619,45.6384753 82.7965524,45.9260879 84.2846327,45.9260879 L84.3068903,45.9260879 L84.3307377,45.9260879 C85.8204078,45.9260879 87.3084881,45.6384753 88.7059481,45.0771668 C90.0588929,44.5282288 91.3307563,43.7272431 92.4325081,42.6541078 C93.5342598,41.5840652 94.3593812,40.3501143 94.920591,39.0295703 C95.5024685,37.6626372 95.7981768,36.2091111 95.796587,34.7509461 C95.7981768,33.2974199 95.5024685,31.8423475 94.920591,30.4738681" id="Fill-12" fill="#8C9BA5" mask="url(#mask-4)"></path>
                            </g>
                            <path d="M39.3593174,3.09260879 C41.1128992,3.09260879 42.5389761,4.47809753 42.5389761,6.18521759 C42.5389761,7.89233764 41.1128992,9.27782638 39.3593174,9.27782638 C37.6057356,9.27782638 36.1796587,7.89233764 36.1796587,6.18521759 C36.1796587,4.47809753 37.6057356,3.09260879 39.3593174,3.09260879 M39.3593174,12.3704352 C42.8712504,12.3704352 45.7186348,9.6025503 45.7186348,6.18521759 C45.7186348,2.76788487 42.8712504,0 39.3593174,0 C35.8473844,0 33,2.76788487 33,6.18521759 C33,9.6025503 35.8473844,12.3704352 39.3593174,12.3704352" id="Fill-15" fill="#8C9BA5"></path>
                            <path d="M55.3593174,3.09260879 C57.1128992,3.09260879 58.5389761,4.47809753 58.5389761,6.18521759 C58.5389761,7.89233764 57.1128992,9.27782638 55.3593174,9.27782638 C53.6057356,9.27782638 52.1796587,7.89233764 52.1796587,6.18521759 C52.1796587,4.47809753 53.6057356,3.09260879 55.3593174,3.09260879 M55.3593174,12.3704352 C58.8712504,12.3704352 61.7186348,9.6025503 61.7186348,6.18521759 C61.7186348,2.76788487 58.8712504,0 55.3593174,0 C51.8473844,0 49,2.76788487 49,6.18521759 C49,9.6025503 51.8473844,12.3704352 55.3593174,12.3704352" id="Fill-17" fill="#8C9BA5"></path>
                        </g>
                    </g>
                </g>
            </g>
        </g>
    </g>
</svg>