<svg width="438" height="61" viewBox="0 0 438 61" xmlns="http://www.w3.org/2000/svg" xmlns:xlink="http://www.w3.org/1999/xlink"><title>Group 7</title><defs><filter x="-.8%" y="-4.4%" width="101.6%" height="112.3%" filterUnits="objectBoundingBox" id="a"><feOffset dy="1" in="SourceAlpha" result="shadowOffsetOuter1"/><feGaussianBlur stdDeviation="1" in="shadowOffsetOuter1" result="shadowBlurOuter1"/><feColorMatrix values="0 0 0 0 0 0 0 0 0 0 0 0 0 0 0 0 0 0 0.5 0" in="shadowBlurOuter1" result="shadowMatrixOuter1"/><feMerge><feMergeNode in="shadowMatrixOuter1"/><feMergeNode in="SourceGraphic"/></feMerge></filter><path id="b" d="M327.835 14.048h31.69V46.81h-31.69z"/></defs><g filter="url(#a)" transform="translate(2 1)" fill="none" fill-rule="evenodd"><path fill="#FF6464" d="M25.67 11.555L20.535 2.56h10.27l5.136 8.994h-.001zM25.67 11.555l-5.135 8.993-5.136-8.993 5.136-8.994 5.135 8.994z"/><path fill="#FFAA64" d="M20.535 20.549l5.135-8.994h10.27l-5.134 8.994z"/><path fill="#FF6464" d="M41.13 20.51l5.136-8.994L51.4 20.51l-5.135 8.994h-.001zM41.13 20.51H30.86l5.135-8.994h10.27L41.13 20.51z"/><path fill="#FFAA64" d="M30.86 20.51h10.27l5.135 8.993v.001h-10.27z"/><path fill="#FF6464" d="M41.19 38.527h10.271l-5.135 8.994h-10.27l-.001-.001zM41.191 38.526l-5.135-8.993h10.27l5.135 8.994h-10.27z"/><path fill="#FFAA64" d="M36.056 29.533l5.135 8.994-5.135 8.993-5.136-8.993z"/><path fill="#FF6464" d="M15.52 47.588l5.135 8.994h10.271l-5.135-8.994h-10.27v-.001z"/><path fill="#FF6464" d="M25.792 47.588h-.001l5.135 8.994 5.136-8.994-5.136-8.994z"/><path fill="#FFAA64" d="M30.926 38.593l-5.135 8.995H15.52v-.001l5.134-8.994z"/><path fill="#FF6464" d="M5.196 29.638L.06 38.633l5.135 8.994 5.134-8.994-5.134-8.994v-.001zM10.331 38.633h10.27l-5.135 8.993H5.196l5.135-8.994z"/><path fill="#FFAA64" d="M20.601 38.632h-10.27L5.195 29.64h10.27z"/><path fill="#FF6464" d="M5.135 11.622L0 20.616h10.27l5.135-8.994h.001z"/><path fill="#FF6464" d="M0 20.616l5.135 8.994h10.27l-5.135-8.993v-.001z"/><path fill="#FFAA64" d="M15.406 29.61l-5.136-8.994 5.135-8.994 5.136 8.994z"/><path fill="#FFE38D" d="M30.994 20.549h-10.42l-5.21 9.125 5.21 9.126h10.42l5.21-9.126z"/><g transform="translate(74)"><path d="M45.233 26.553v18.211c0 .716-.578 1.297-1.29 1.297h-1.528c-.714 0-1.291-.58-1.291-1.297V26.553c0-5.565-3.176-8.504-7.596-8.504-4.794 0-8.654 2.939-8.654 10.692v16.023c0 .716-.578 1.297-1.29 1.297h-1.528c-.713 0-1.291-.58-1.291-1.297V26.553c0-5.565-2.864-8.504-7.284-8.504-4.483 0-8.965 2.939-8.965 10.692v16.023c0 .716-.578 1.297-1.291 1.297H1.697c-.713 0-1.29-.58-1.29-1.297v-27.05a2.91 2.91 0 0 1 2.903-2.916c.666 0 1.206.542 1.206 1.211v1.972c0 .421.527.599.785.267 2.344-2.995 5.392-4.2 8.74-4.2 4.082 0 7.29 1.81 9.112 5.018a.442.442 0 0 0 .759.03c2.329-3.436 5.92-5.048 9.68-5.048 6.848 0 11.641 4.69 11.641 12.505M55.258 14.798c1.136 0 2.055.924 2.055 2.063v27.136c0 1.14-.92 2.064-2.055 2.064a2.059 2.059 0 0 1-2.055-2.064V16.861c0-1.139.92-2.063 2.055-2.063M52.27 5.17c0-1.625 1.307-3.001 2.988-3.001 1.682 0 2.988 1.376 2.988 3.001 0 1.626-1.306 3.001-2.988 3.001-1.68 0-2.988-1.375-2.988-3M64.162 30.43c0-9.255 6.973-16.382 16.374-16.382 5.36 0 10.014 2.459 12.611 6.35.632.946.343 2.233-.641 2.8-.868.5-1.99.284-2.563-.54-1.827-2.626-4.936-4.353-8.574-4.583-7.141-.45-13.3 5.56-13.092 12.742.195 6.754 5.478 11.992 12.259 11.992 4.056 0 7.425-1.837 9.56-4.646.606-.798 1.68-1.061 2.544-.557l.131.077c.994.58 1.259 1.898.583 2.832-2.812 3.882-7.508 6.296-12.818 6.296-9.401 0-16.374-7.128-16.374-16.382M114.343 16.404v.05c0 .983-.72 1.826-1.692 1.951-4.333.56-8.145 3.404-8.145 10.274v15.318c0 1.14-.92 2.064-2.054 2.064a2.059 2.059 0 0 1-2.055-2.064V16.078c0-.707.571-1.28 1.275-1.28h1.56c.704 0 1.274.573 1.274 1.28 0 1.126 1.34 1.698 2.15.92 1.552-1.487 3.433-2.25 5.464-2.547 1.173-.172 2.223.761 2.223 1.953M144.849 30.67c.125-7.06-5.28-12.627-12.276-12.62-6.604.005-12.133 5.508-12.25 12.139-.126 7.058 5.278 12.627 12.274 12.62 6.605-.005 12.134-5.509 12.252-12.14m-28.638-.24c0-9.253 7.284-16.38 16.374-16.38s16.375 7.127 16.375 16.38c0 9.254-7.285 16.382-16.375 16.382s-16.374-7.128-16.374-16.382M153.941 30.43c0-9.255 6.973-16.382 16.374-16.382 5.35 0 9.996 2.449 12.595 6.325a1.995 1.995 0 0 1-.65 2.84c-.853.491-1.96.28-2.52-.53-1.826-2.64-4.943-4.378-8.592-4.608-7.14-.45-13.3 5.56-13.092 12.742.196 6.754 5.478 11.992 12.26 11.992 4.055 0 7.425-1.837 9.56-4.646.605-.798 1.68-1.061 2.544-.557l.13.077c.994.58 1.26 1.898.583 2.832-2.812 3.882-7.508 6.296-12.818 6.296-9.4 0-16.374-7.128-16.374-16.382M192.231.417c1.135 0 2.055.924 2.055 2.063v41.517c0 1.14-.92 2.064-2.055 2.064a2.06 2.06 0 0 1-2.055-2.064V2.48c0-1.14.92-2.063 2.055-2.063M205.057 14.798c1.135 0 2.055.924 2.055 2.063v27.136c0 1.14-.92 2.064-2.055 2.064a2.058 2.058 0 0 1-2.054-2.064V16.861c0-1.139.919-2.063 2.054-2.063m-2.988-9.629c0-1.625 1.307-3.001 2.988-3.001s2.988 1.376 2.988 3.001c0 1.626-1.307 3.001-2.988 3.001-1.68 0-2.988-1.375-2.988-3M260.654 26.553v17.444c0 1.14-.92 2.064-2.054 2.064a2.06 2.06 0 0 1-2.055-2.064V26.553c0-5.565-3.175-8.504-7.596-8.504-4.794 0-8.653 2.939-8.653 10.692v15.256c0 1.14-.92 2.064-2.055 2.064a2.059 2.059 0 0 1-2.054-2.064V26.553c0-5.565-2.865-8.504-7.285-8.504-4.482 0-8.965 2.939-8.965 10.692v15.256a2.06 2.06 0 0 1-2.054 2.064 2.06 2.06 0 0 1-2.055-2.064V15.935c0-.628.507-1.137 1.132-1.137h1.6c.76 0 1.377.62 1.377 1.383 0 .996 1.19 1.51 1.906.82 2.16-2.088 4.782-2.953 7.62-2.953 3.735 0 6.739 1.516 8.619 4.233.436.63 1.32.671 1.798.07 2.323-2.924 5.657-4.303 9.132-4.303 6.849 0 11.642 4.69 11.642 12.505M295.394 30.668c.125-7.058-5.28-12.625-12.275-12.619-6.604.007-12.133 5.51-12.25 12.14-.125 7.06 5.28 12.627 12.275 12.62 6.604-.006 12.134-5.509 12.25-12.14m4.112-13.808v27.137c0 1.14-.92 2.062-2.055 2.062a2.058 2.058 0 0 1-2.054-2.062v-4.065c-2.615 4.19-7.036 6.878-12.577 6.878-8.778 0-16.063-7.128-16.063-16.382 0-9.254 7.285-16.381 16.063-16.381 5.541 0 9.962 2.688 12.577 6.877v-4.064c0-1.14.92-2.062 2.054-2.062 1.135 0 2.055.923 2.055 2.062M317.627 18.8a1.875 1.875 0 0 0-1.871 1.88v17.065c0 4.766 2.298 4.964 7.026 4.773a1.873 1.873 0 0 1 1.939 1.878 1.89 1.89 0 0 1-1.703 1.877c-7.33.724-11.372-1.548-11.372-8.528V20.679c0-1.038-.837-1.88-1.87-1.88h-2.674c-1.1 0-1.992-.895-1.992-2s.892-2 1.992-2h2.674c1.033 0 1.87-.842 1.87-1.88v-4.23c0-.828.54-1.559 1.33-1.799l.366-.111a1.873 1.873 0 0 1 2.414 1.798v4.342c0 1.038.837 1.88 1.871 1.88h5.223c1.033 0 1.871.84 1.871 1.878v.243c0 1.039-.838 1.88-1.871 1.88h-5.223z" fill="#FFF"/><mask id="c" fill="#fff"><use xlink:href="#b"/></mask><path d="M334.363 28.49h18.669c1.232 0 2.116-1.2 1.76-2.384-1.601-5.315-6.01-8.057-10.707-8.057-5.65 0-9.904 3.222-11.478 8.052-.384 1.18.52 2.39 1.756 2.39m25.163 2.064v.018a1.918 1.918 0 0 1-1.914 1.92H332.07c.872 6.377 5.79 10.316 12.39 10.316 4.115 0 7.185-1.62 9.062-3.907.633-.772 1.739-.95 2.598-.444 1.109.653 1.368 2.167.52 3.136-2.768 3.16-6.983 5.217-12.242 5.217-9.837 0-16.562-6.94-16.562-16.382 0-9.19 6.6-16.381 16.25-16.381 9.526 0 15.44 7.94 15.44 16.507" fill="#FFF" mask="url(#c)"/></g></g></svg>